<svg xmlns="http://www.w3.org/2000/svg" width="24" height="24" viewBox="0 0 24 24">
    <g fill="none" fill-rule="evenodd">
        <path d="M0 0h24v24H0z"/>
        <g fill="#999">
            <path d="M18.393 16.612v-1.797a3.451 3.451 0 0 0-3.44-3.441.593.593 0 0 0-.594.593v7.492c0 .328.266.594.594.594a3.451 3.451 0 0 0 3.44-3.441M5.278 16.612v-1.797a3.451 3.451 0 0 1 3.44-3.441c.328 0 .594.265.594.593v7.492a.593.593 0 0 1-.594.594 3.451 3.451 0 0 1-3.44-3.441"/>
            <path d="M19.972 15.864a.677.677 0 0 1-.673-.761c.007-.051.61-5.182-2.018-8.157-1.255-1.42-3.078-2.14-5.42-2.14a.677.677 0 1 1 0-1.355c2.75 0 4.916.876 6.44 2.604 3.032 3.439 2.372 8.983 2.342 9.217a.677.677 0 0 1-.67.592"/>
            <path d="M3.751 15.864a.677.677 0 0 1-.67-.592c-.03-.234-.69-5.778 2.342-9.217 1.523-1.728 3.69-2.604 6.439-2.604a.677.677 0 0 1 0 1.354c-2.341 0-4.165.72-5.419 2.14-2.628 2.976-2.025 8.107-2.019 8.158a.677.677 0 0 1-.673.761"/>
        </g>
    </g>
</svg>
