<svg xmlns="http://www.w3.org/2000/svg" xmlns:xlink="http://www.w3.org/1999/xlink" width="220" height="154" viewBox="0 0 220 154">
    <defs>
        <path id="a" d="M.183.356h15.543v19.288H.183z"/>
        <path id="c" d="M.189 0H27.38v28H.19z"/>
        <path id="e" d="M.189 0H27.38v28H.19z"/>
    </defs>
    <g fill="none" fill-rule="evenodd">
        <path fill="#222" d="M0 0h220v800H0z"/>
        <g transform="translate(137.246 30)">
            <mask id="b" fill="#fff">
                <use xlink:href="#a"/>
            </mask>
            <path fill="#FFF" d="M15.268 9.134L1.557.492C.947.106.183.588.183 1.358v17.284c0 .77.763 1.252 1.374.867l13.711-8.643c.61-.385.61-1.347 0-1.732" mask="url(#b)"/>
        </g>
        <g transform="translate(50.6 26)">
            <mask id="d" fill="#fff">
                <use xlink:href="#c"/>
            </mask>
            <path fill="#FFF" d="M13.785 11.083c-1.565 0-2.833 1.306-2.833 2.917 0 1.61 1.268 2.917 2.833 2.917 1.564 0 2.832-1.306 2.832-2.917 0-1.61-1.268-2.917-2.832-2.917M27.38 14c0 7.732-6.087 14-13.595 14C6.276 28 .189 21.732.189 14S6.276 0 13.785 0C21.293 0 27.38 6.268 27.38 14" mask="url(#d)"/>
        </g>
        <path fill="#FFF" d="M38.316 47.113v2.502a.38.38 0 0 0 .375.385h9.94V30.762c0-.609-.662-.97-1.155-.632L37.23 37.195a.726.726 0 0 1-.827 0l-10.247-7.064c-.493-.34-1.155.022-1.155.632V50h9.94a.38.38 0 0 0 .375-.385V47.06c0-.884.727-1.595 1.6-1.537.798.053 1.4.77 1.4 1.59"/>
        <g transform="translate(105.738 26)">
            <mask id="f" fill="#fff">
                <use xlink:href="#e"/>
            </mask>
            <path fill="#FFF" d="M13.785 11.083c-1.565 0-2.833 1.306-2.833 2.917 0 1.61 1.268 2.917 2.833 2.917 1.564 0 2.832-1.306 2.832-2.917 0-1.61-1.268-2.917-2.832-2.917M27.38 14c0 7.732-6.087 14-13.595 14C6.276 28 .189 21.732.189 14S6.276 0 13.785 0C21.293 0 27.38 6.268 27.38 14" mask="url(#f)"/>
        </g>
        <path fill="#FFF" d="M93.454 47.113v2.502a.38.38 0 0 0 .375.385h9.94V30.762c0-.609-.662-.97-1.154-.632l-10.248 7.065a.726.726 0 0 1-.827 0l-10.247-7.064c-.493-.34-1.155.022-1.155.632V50h9.94a.38.38 0 0 0 .375-.385V47.06c0-.884.727-1.595 1.601-1.537.797.053 1.4.77 1.4 1.59"/>
    </g>
</svg>
