<svg xmlns="http://www.w3.org/2000/svg" xmlns:xlink="http://www.w3.org/1999/xlink" width="24" height="24" viewBox="0 0 24 24">
    <defs>
        <path id="a" d="M.315.78h6.922v7.081H.315z"/>
        <path id="c" d="M0 1.097h6.926v7.085H0z"/>
        <path id="e" d="M0 .78h15.237v15.584H0z"/>
    </defs>
    <g fill="none" fill-rule="evenodd">
        <g transform="translate(12 3.857)">
            <mask id="b" fill="#fff">
                <use xlink:href="#a"/>
            </mask>
            <path fill="#999" d="M3.3 7.861L6.62 4.467a2.192 2.192 0 0 0 0-3.053 2.076 2.076 0 0 0-2.986 0L.315 4.808 3.3 7.86z" mask="url(#b)"/>
        </g>
        <g transform="translate(4 12.038)">
            <mask id="d" fill="#fff">
                <use xlink:href="#c"/>
            </mask>
            <path fill="#999" d="M3.94 1.097L.62 4.494a2.194 2.194 0 0 0 0 3.055c.823.844 2.16.844 2.985 0l3.321-3.397-2.985-3.055z" mask="url(#d)"/>
        </g>
        <g transform="translate(4 3.857)">
            <mask id="f" fill="#fff">
                <use xlink:href="#e"/>
            </mask>
            <path fill="#999" d="M3.605 1.413a2.076 2.076 0 0 0-2.986 0 2.192 2.192 0 0 0 0 3.054L11.634 15.73c.822.845 2.16.845 2.985 0a2.197 2.197 0 0 0 0-3.055L3.605 1.413z" mask="url(#f)"/>
        </g>
    </g>
</svg>
