<svg xmlns="http://www.w3.org/2000/svg" width="24" height="24" viewBox="0 0 24 24">
    <g fill="none" fill-rule="evenodd">
        <path d="M0 0h24v24H0z"/>
        <path fill="#999" fill-rule="nonzero" d="M12.434 21a6.271 6.271 0 0 1-1.33-.095 1.21 1.21 0 0 1-1.045-1.045l-.095-1.33a12.168 12.168 0 0 1-1.9-1.045l-1.235.475a1.21 1.21 0 0 1-1.425-.38 7.3 7.3 0 0 1-1.325-2.374 1.367 1.367 0 0 1 .38-1.425l1.045-.76a4.625 4.625 0 0 1-.095-1.14 4.625 4.625 0 0 1 .095-1.14l-1.049-.664c-.4-.315-.55-.85-.376-1.327.35-.84.796-1.638 1.33-2.375a1.21 1.21 0 0 1 1.425-.38l1.235.57a5.357 5.357 0 0 1 1.9-1.045l.095-1.33a1.21 1.21 0 0 1 1.04-1.048 6.728 6.728 0 0 1 2.755 0c.545.07.975.5 1.045 1.045l.095 1.33c.663.291 1.299.64 1.9 1.045l1.235-.57a1.21 1.21 0 0 1 1.425.38 8.422 8.422 0 0 1 1.329 2.378 1.367 1.367 0 0 1-.38 1.425l-1.045.76c.079.375.11.758.095 1.14.016.382-.016.765-.095 1.14l1.045.76c.456.32.617.92.38 1.425-.35.84-.796 1.638-1.33 2.375-.36.394-.917.542-1.425.38l-1.235-.57a5.357 5.357 0 0 1-1.9 1.045l-.095 1.33c-.072.543-.5.97-1.044 1.04h-1.425zm.665-3.13c.081-.474.406-.871.855-1.045a4.227 4.227 0 0 0 1.995-1.14c.377-.298.885-.37 1.33-.19l.665-1.14a1.237 1.237 0 0 1-.475-1.235c.11-.37.173-.754.19-1.14a2.41 2.41 0 0 0-.19-1.14c-.094-.469.091-.95.475-1.235l-.665-1.143c-.445.18-.953.108-1.33-.19a4.227 4.227 0 0 0-1.995-1.14 1.369 1.369 0 0 1-.855-1.045h-1.33a1.261 1.261 0 0 1-.76 1.045 4.227 4.227 0 0 0-1.995 1.14c-.377.298-.885.37-1.33.19a.626.626 0 0 0-.855.285.554.554 0 0 0 .19.855c.384.285.569.766.475 1.235a7.014 7.014 0 0 0-.19 1.14c.024.385.088.767.19 1.14.093.468-.091.948-.474 1.233l.665 1.14c.445-.18.953-.108 1.33.19.596.49 1.27.875 1.995 1.14.467.148.802.558.855 1.045l1.234.005z"/>
        <path fill="#999" fill-rule="nonzero" d="M12.433 19.005a7.029 7.029 0 1 1 7.029-7.029 7.013 7.013 0 0 1-7.029 7.029zm0-12.158a5.129 5.129 0 1 0 5.129 5.129 5.108 5.108 0 0 0-5.129-5.129z"/>
        <circle cx="12.434" cy="12.071" r="1.9" fill="#999" fill-rule="nonzero"/>
    </g>
</svg>
